
<svg width="40" height="40" viewBox="0 0 67 72" fill="none" xmlns="http://www.w3.org/2000/svg">
<path d="M32.5324 71C24.6659 71 18.4852 68.6445 13.9901 63.9336C9.60737 59.1106 7.41602 52.4368 7.41602 43.9123C7.41602 35.5 9.21405 27.985 12.8101 21.3673C16.4062 14.7496 21.3508 9.53396 27.6439 5.72037C33.9371 1.90679 41.073 0 49.0518 0C54.4459 0 58.7163 0.897318 61.8628 2.69195C65.0094 4.48658 66.5827 6.95419 66.5827 10.0948C66.5827 12.8989 65.2342 15.6469 62.5371 18.3389C61.5257 19.3483 60.1772 20.3017 58.4915 21.199C56.9182 21.9842 55.6821 22.3768 54.7831 22.3768C53.7717 22.3768 52.9288 21.9842 52.2546 21.199C51.1308 19.9652 49.6699 18.7875 47.8719 17.6659C46.0738 16.5442 43.5453 15.9834 40.2864 15.9834C34.7799 15.9834 30.2848 17.8902 26.8011 21.7038C23.3174 25.4052 21.5756 30.2844 21.5756 36.3412C21.5756 41.8373 23.1488 46.2678 26.2954 49.6327C29.442 52.9976 33.5999 54.6801 38.7693 54.6801C41.4664 54.6801 44.3882 54.2314 47.5347 53.3341C50.7937 52.3246 53.6593 50.9226 56.1316 49.128C57.3677 48.0063 58.6601 47.4455 60.0086 47.4455C62.2562 47.4455 63.3799 48.8476 63.3799 51.6517C63.3799 55.3531 61.5257 58.8862 57.8172 62.2512C55.0078 64.831 51.2432 66.9621 46.5233 68.6445C41.9159 70.2148 37.2522 71 32.5324 71Z" fill="#E6DEDE"/>
<path d="M24.3987 71.3095C16.7571 71.3095 10.7529 69.0101 6.38624 64.4114C2.12875 59.7032 0 53.1883 0 44.8668C0 36.6548 1.74666 29.3187 5.23999 22.8586C8.73332 16.3984 13.5367 11.307 19.65 7.58418C25.7633 3.86139 32.6954 2 40.4462 2C45.6862 2 49.8345 2.87595 52.8912 4.62785C55.9479 6.37975 57.4762 8.78861 57.4762 11.8544C57.4762 14.5918 56.1662 17.2744 53.5462 19.9022C52.5637 20.8877 51.2537 21.8184 49.6162 22.6943C48.0879 23.4608 46.887 23.844 46.0137 23.844C45.0312 23.844 44.2125 23.4608 43.5575 22.6943C42.4658 21.4899 41.0466 20.3402 39.3 19.2453C37.5533 18.1503 35.097 17.6029 31.9312 17.6029C26.5821 17.6029 22.2154 19.4642 18.8312 23.187C15.4471 26.8003 13.755 31.5633 13.755 37.476C13.755 42.8412 15.2833 47.1662 18.34 50.451C21.3966 53.7358 25.4358 55.3782 30.4575 55.3782C33.0775 55.3782 35.9158 54.9402 38.9725 54.0643C42.1383 53.0788 44.922 51.7102 47.3237 49.9583C48.5245 48.8633 49.7799 48.3158 51.0899 48.3158C53.2733 48.3158 54.3649 49.6845 54.3649 52.4219C54.3649 56.0352 52.5637 59.4842 48.9612 62.769C46.232 65.2874 42.575 67.3678 37.99 69.0102C33.5141 70.5431 28.9837 71.3095 24.3987 71.3095Z" fill="#00FFDF"/>
</svg>
